<?xml version="1.0" encoding="UTF-8" standalone="no"?>
<svg
   xmlns:dc="http://purl.org/dc/elements/1.1/"
   xmlns:cc="http://creativecommons.org/ns#"
   xmlns:rdf="http://www.w3.org/1999/02/22-rdf-syntax-ns#"
   xmlns:svg="http://www.w3.org/2000/svg"
   xmlns="http://www.w3.org/2000/svg"
   xmlns:sodipodi="http://sodipodi.sourceforge.net/DTD/sodipodi-0.dtd"
   xmlns:inkscape="http://www.inkscape.org/namespaces/inkscape"
   viewBox="0 0 609 150"
   preserveAspectRatio="xMidYMid meet"
   class="css-1d6k1hz"
   id="beehgfca"
   version="1.1"
   inkscape:version="0.91 r13725"
   sodipodi:docname="icon-left-text-beta.svg"
   width="609"
   height="150">
  <metadata
     id="metadata13">
    <rdf:RDF>
      <cc:Work
         rdf:about="">
        <dc:format>image/svg+xml</dc:format>
        <dc:type
           rdf:resource="http://purl.org/dc/dcmitype/StillImage" />
        <dc:title />
      </cc:Work>
    </rdf:RDF>
  </metadata>
  <sodipodi:namedview
     pagecolor="#ffffff"
     bordercolor="#666666"
     borderopacity="1"
     objecttolerance="10"
     gridtolerance="10"
     guidetolerance="10"
     inkscape:pageopacity="0"
     inkscape:pageshadow="2"
     inkscape:window-width="1321"
     inkscape:window-height="744"
     id="namedview11"
     showgrid="false"
     inkscape:zoom="1.3468701"
     inkscape:cx="411.85413"
     inkscape:cy="55.754834"
     inkscape:window-x="45"
     inkscape:window-y="24"
     inkscape:window-maximized="1"
     inkscape:current-layer="beehgfca" />
  <defs
     id="SvgjsDefs1078" />
  <g
     id="SvgjsG1079"
     style="fill:#ffffff"
     transform="translate(0,20)" />
  <g
     id="SvgjsG1080"
     transform="matrix(2.6078882,0,0,2.6078882,-20.883974,-24.774938)"
     style="fill:#e64906">
    <path
       d="m 53.215,31.822 c -1.912,0 -3.479,1.434 -3.727,3.278 l -10.592,0 c -0.183,-2.984 -1.98,-5.532 -4.532,-6.785 l 2.327,-8.821 c 0.135,0.011 0.265,0.041 0.402,0.041 2.767,0 5.018,-2.251 5.018,-5.018 0,-2.767 -2.251,-5.017 -5.017,-5.017 -2.768,0 -5.019,2.251 -5.019,5.018 0,2.282 1.54,4.191 3.63,4.798 l -2.272,8.612 c -0.826,-0.284 -1.708,-0.445 -2.628,-0.445 -2.48,0 -4.701,1.121 -6.191,2.879 l -6.503,-4.4 c 0.293,-0.656 0.464,-1.378 0.464,-2.143 0,-2.913 -2.37,-5.283 -5.284,-5.283 -2.913,0 -5.283,2.37 -5.283,5.283 0,2.913 2.37,5.283 5.283,5.283 1.791,0 3.371,-0.9 4.327,-2.267 l 6.397,4.329 c -0.837,1.277 -1.328,2.799 -1.328,4.437 0,3.729 2.532,6.871 5.964,7.818 l -1.839,6.167 c -0.15,-0.024 -0.302,-0.047 -0.459,-0.047 -1.643,0 -2.98,1.337 -2.98,2.979 0,1.644 1.337,2.981 2.98,2.981 1.644,0 2.981,-1.338 2.981,-2.981 0,-1.132 -0.642,-2.106 -1.575,-2.61 l 1.875,-6.285 c 0.383,0.057 0.772,0.095 1.171,0.095 4.307,0 7.832,-3.375 8.092,-7.617 l 10.592,0 c 0.247,1.845 1.814,3.277 3.727,3.277 2.083,0 3.778,-1.694 3.778,-3.777 0,-2.083 -1.696,-3.779 -3.779,-3.779 z"
       id="path6"
       inkscape:connector-curvature="0" />
  </g>
  <g
     id="SvgjsG1081"
     transform="matrix(6,0,0,6,157.09299,-54)"
     style="fill:#212529">
    <path
       d="M 4.62,17.94 C 7.3,18.2 8.6,18.8 8.6,21.12 8.6,23.2 7.3,24.1 5.04,24.1 l -0.7,0 C 2.2,24.1 1.02,23.2 0.82,21.5 0.8,21.32 0.92,21.2 1.12,21.2 l 1.46,0 c 0.3,0 0.42,0.06 0.48,0.22 0.22,0.44 0.46,0.7 1.22,0.7 l 0.86,0 c 0.86,0 1.24,-0.34 1.24,-1 0,-0.86 -0.2,-1.08 -1.76,-1.22 -2.78,-0.22 -3.74,-1 -3.74,-3.06 0,-2.04 1.34,-2.9 3.4,-2.9 l 0.7,0 c 2.02,0 3.44,1.06 3.44,2.84 0,0.2 -0.06,0.32 -0.28,0.32 l -1.44,0 C 6.46,17.1 6.28,17.02 6.18,16.74 6,16.28 5.76,15.92 4.94,15.92 l -0.66,0 c -0.76,0 -1.18,0.32 -1.18,0.88 0,0.58 0.16,0.98 1.52,1.14 z M 15.04,16 l -1.42,0 0,4.98 c 0,0.78 0.34,1.02 1.3,1.06 0.26,0.02 0.4,0.18 0.38,0.42 l -0.06,1.2 c -0.02,0.24 -0.18,0.38 -0.48,0.38 -2.68,0 -3.38,-1 -3.38,-3.08 l 0,-4.96 -0.98,0 c -0.2,0 -0.3,-0.1 -0.3,-0.3 l 0,-1.38 C 10.1,14.1 10.2,14 10.4,14 l 0.98,0 0,-1.28 c 0,-0.2 0.1,-0.3 0.3,-0.3 l 1.64,0 c 0.2,0 0.3,0.1 0.3,0.3 l 0,1.28 1.4,0 c 0.22,0 0.32,0.1 0.32,0.3 l 0,1.4 c 0,0.2 -0.16,0.3 -0.3,0.3 z m 5.28,8.08 c -2.22,0 -2.98,-1.42 -2.98,-3.52 l 0,-6.26 c 0,-0.2 0.1,-0.3 0.3,-0.3 l 1.62,0 c 0.2,0 0.3,0.1 0.3,0.3 l 0,6.48 c 0,0.92 0.48,1.3 1.32,1.3 l 0.26,0 c 1.04,0 1.74,-0.5 1.98,-0.9 l 0,-6.88 c 0,-0.2 0.1,-0.3 0.3,-0.3 l 1.62,0 c 0.2,0 0.3,0.1 0.3,0.3 l 0,9.4 c 0,0.2 -0.1,0.3 -0.3,0.3 l -1.62,0 c -0.2,0 -0.3,-0.1 -0.3,-0.3 l 0,-0.96 c -0.42,0.64 -1.24,1.34 -2.66,1.34 l -0.14,0 z M 35.38,10 c 0.2,0 0.3,0.1 0.3,0.3 l 0,13.4 c 0,0.2 -0.1,0.3 -0.3,0.3 l -1.64,0 c -0.16,0 -0.28,-0.1 -0.28,-0.3 l 0,-0.68 c -0.38,0.62 -0.98,1.08 -2,1.08 l -0.52,0 c -2.18,0 -3.5,-1.46 -3.5,-3.58 l 0,-2.98 c 0,-2.14 1.32,-3.62 3.5,-3.62 l 0.52,0 c 1.02,0 1.62,0.42 2,1 l 0,-4.62 c 0,-0.2 0.12,-0.3 0.28,-0.3 l 1.64,0 z m -3.22,12.1 c 0.78,0 1.3,-0.42 1.3,-1.34 l 0,-3.5 c 0,-0.96 -0.52,-1.34 -1.3,-1.34 l -1.2,0 c -0.78,0 -1.3,0.38 -1.3,1.34 l 0,3.5 c 0,0.92 0.52,1.34 1.3,1.34 l 1.2,0 z m 6.12,-11.8 c 0,-0.2 0.1,-0.3 0.3,-0.3 l 1.62,0 c 0.2,0 0.3,0.1 0.3,0.3 l 0,1.58 c 0,0.2 -0.1,0.3 -0.3,0.3 l -1.62,0 c -0.2,0 -0.3,-0.1 -0.3,-0.3 l 0,-1.58 z m 0,4 c 0,-0.2 0.1,-0.3 0.3,-0.3 l 1.62,0 c 0.2,0 0.3,0.1 0.3,0.3 l 0,9.4 c 0,0.2 -0.1,0.3 -0.3,0.3 l -1.62,0 c -0.2,0 -0.3,-0.1 -0.3,-0.3 l 0,-9.4 z m 9.56,-0.38 c 2.18,0 3.5,1.48 3.5,3.62 l 0,2.98 c 0,2.12 -1.32,3.58 -3.5,3.58 l -0.52,0 c -1.02,0 -1.64,-0.46 -2,-1.08 l 0,4.68 c 0,0.2 -0.14,0.3 -0.28,0.3 l -1.64,0 c -0.2,0 -0.3,-0.1 -0.3,-0.3 l 0,-13.4 c 0,-0.2 0.1,-0.3 0.3,-0.3 l 1.64,0 c 0.14,0 0.28,0.1 0.28,0.3 l 0,0.62 c 0.36,-0.58 0.98,-1 2,-1 l 0.52,0 z m 1.28,6.84 0,-3.5 c 0,-0.96 -0.52,-1.34 -1.3,-1.34 l -1.2,0 c -0.78,0 -1.3,0.38 -1.3,1.34 l 0,3.5 c 0,0.92 0.52,1.34 1.3,1.34 l 1.2,0 c 0.78,0 1.3,-0.42 1.3,-1.34 z M 53.44,10.3 c 0,-0.2 0.1,-0.3 0.3,-0.3 l 1.62,0 c 0.2,0 0.3,0.1 0.3,0.3 l 0,13.4 c 0,0.2 -0.1,0.3 -0.3,0.3 l -1.62,0 c -0.2,0 -0.3,-0.1 -0.3,-0.3 l 0,-13.4 z m 8.88,3.62 c 1.88,0 3.38,1.38 3.38,3.64 l 0,1.72 c 0,0.38 -0.2,0.6 -0.6,0.6 l -5.06,0 0,0.88 c 0,0.92 0.52,1.34 1.3,1.34 l 0.98,0 c 1.12,0 1.38,-0.22 1.8,-0.7 0.12,-0.14 0.24,-0.14 0.44,0 l 0.82,0.54 c 0.2,0.14 0.22,0.28 0.1,0.44 -0.72,0.88 -1.38,1.72 -3.16,1.72 l -0.98,0 c -2.2,0 -3.58,-1.64 -3.58,-3.76 l 0,-2.78 c 0,-2.16 1.38,-3.64 3.58,-3.64 l 0.98,0 z m 1.16,4.22 0,-0.88 c 0,-0.96 -0.46,-1.34 -1.16,-1.34 l -0.98,0 c -0.78,0 -1.3,0.38 -1.3,1.36 l 0,0.86 3.44,0 z m 11.78,5.48 C 75.38,23.82 75.3,24 75.04,24 l -1.82,0 c -0.16,0 -0.3,-0.06 -0.46,-0.36 l -1.4,-2.62 -1.4,2.62 C 69.8,23.94 69.66,24 69.5,24 l -1.82,0 c -0.24,0 -0.32,-0.18 -0.2,-0.38 l 2.64,-4.6 -2.66,-4.64 C 67.34,14.18 67.42,14 67.66,14 l 1.84,0 c 0.16,0 0.3,0.06 0.46,0.36 l 1.4,2.62 1.42,-2.62 C 72.94,14.06 73.08,14 73.24,14 l 1.82,0 c 0.24,0 0.3,0.18 0.18,0.38 L 72.64,19 Z"
       id="path9"
       inkscape:connector-curvature="0" />
  </g>
  <g
     id="text3350">
    <path
       d="m 454.41696,112.60553 20,0 q 4.9,0 7.2,2.25 2.3,2.2 2.3,6.75 0,3 -1.3,4.9 -1.3,1.85 -3.2,2.6 4.05,1.1 5.5,5.4 0.5,1.55 0.5,3.6 0,4.9 -2.3,7.2 -2.3,2.3 -7.2,2.3 l -21.5,0 0,-35 z m 22,24 q 0,-3 -3,-3 l -10,0 0,7 10,0 q 3,0 3,-3 l 0,-1 z m -1.5,-14 q 0,-3 -3,-3 l -8.5,0 0,7 8.5,0 q 3,0 3,-3 l 0,-1 z"
       id="path3369" />
    <path
       d="m 522.71384,147.60553 -27.75,0 0,-35 27.75,0 0,7 -18.75,0 0,6.75 14.75,0 0,7 -14.75,0 0,7.25 18.75,0 0,7 z"
       id="path3371" />
    <path
       d="m 548.70212,147.60553 -9,0 0,-28 -10.5,0 0,-7 30,0 0,7 -10.5,0 0,28 z"
       id="path3373" />
    <path
       d="m 570.39352,147.60553 -9.75,0 13.25,-35 10,0 13.25,35 -9.75,0 -2.25,-6.25 -12.5,0 -2.25,6.25 z m 4.5,-12.75 8,0 -4,-11.75 -4,11.75 z"
       id="path3375" />
  </g>
</svg>
